<svg height="1.905mm" viewBox="0 0 58.71104 1.905" width="58.71104mm" xmlns="http://www.w3.org/2000/svg">
  <g transform="matrix(.26458333 0 0 .26458333 -34.792708 -20.372916)">
    <path d="m135.1 84.2c-2 0-3.6-1.6-3.6-3.6s1.6-3.6 3.6-3.6 3.6 1.6 3.6 3.6-1.6 3.6-3.6 3.6" fill="#ec3225" />
    <path d="m162 84.2c-2 0-3.6-1.6-3.6-3.6s1.6-3.6 3.6-3.6 3.6 1.6 3.6 3.6-1.6 3.6-3.6 3.6" fill="#0db04b" />
    <path d="m188.8 84.2c-2 0-3.6-1.6-3.6-3.6s1.6-3.6 3.6-3.6 3.6 1.6 3.6 3.6-1.6 3.6-3.6 3.6" fill="#ef4e37" />
    <path d="m215.6 84.2c-2 0-3.6-1.6-3.6-3.6s1.6-3.6 3.6-3.6 3.6 1.6 3.6 3.6-1.6 3.6-3.6 3.6" fill="#ffc10e" />
    <path d="m242.5 84.2c-2 0-3.6-1.6-3.6-3.6s1.6-3.6 3.6-3.6 3.6 1.6 3.6 3.6-1.6 3.6-3.6 3.6" fill="#f38020" />
    <path d="m269.3 84.2c-2 0-3.6-1.6-3.6-3.6s1.6-3.6 3.6-3.6 3.6 1.6 3.6 3.6-1.6 3.6-3.6 3.6" fill="#f9a533" />
    <path d="m296.1 84.2c-2 0-3.6-1.6-3.6-3.6s1.6-3.6 3.6-3.6 3.6 1.6 3.6 3.6-1.6 3.6-3.6 3.6" fill="#387c46" />
    <path d="m148.6 84.2c-2 0-3.6-1.6-3.6-3.6s1.6-3.6 3.6-3.6 3.6 1.6 3.6 3.6-1.7 3.6-3.6 3.6" fill="#daa63c" />
    <path d="m175.4 84.2c-2 0-3.6-1.6-3.6-3.6s1.6-3.6 3.6-3.6 3.6 1.6 3.6 3.6-1.6 3.6-3.6 3.6" fill="#d12333" />
    <path d="m202.2 84.2c-2 0-3.6-1.6-3.6-3.6s1.6-3.6 3.6-3.6 3.6 1.6 3.6 3.6-1.6 3.6-3.6 3.6" fill="#44c7f4" />
    <path d="m229.1 84.2c-2 0-3.6-1.6-3.6-3.6s1.6-3.6 3.6-3.6 3.6 1.6 3.6 3.6-1.7 3.6-3.6 3.6" fill="#a61d44" />
    <path d="m255.9 84.2c-2 0-3.6-1.6-3.6-3.6s1.6-3.6 3.6-3.6 3.6 1.6 3.6 3.6-1.6 3.6-3.6 3.6" fill="#ed4094" />
    <path d="m282.7 84.2c-2 0-3.6-1.6-3.6-3.6s1.6-3.6 3.6-3.6 3.6 1.6 3.6 3.6-1.6 3.6-3.6 3.6" fill="#bb892c" />
    <path d="m309.6 84.2c-2 0-3.6-1.6-3.6-3.6s1.6-3.6 3.6-3.6 3.6 1.6 3.6 3.6-1.7 3.6-3.6 3.6" fill="#00adee" />
    <path d="m336.4 84.2c-2 0-3.6-1.6-3.6-3.6s1.6-3.6 3.6-3.6 3.6 1.6 3.6 3.6-1.6 3.6-3.6 3.6" fill="#006cb6" />
    <path d="m323 84.2c-2 0-3.6-1.6-3.6-3.6s1.6-3.6 3.6-3.6 3.6 1.6 3.6 3.6-1.6 3.6-3.6 3.6" fill="#8bc53f" />
    <path d="m349.8 84.2c-2 0-3.6-1.6-3.6-3.6s1.6-3.6 3.6-3.6 3.6 1.6 3.6 3.6-1.6 3.6-3.6 3.6" fill="#174b6e" />
  </g>
</svg>